<?xml version="1.0" standalone="no"?><!DOCTYPE svg PUBLIC "-//W3C//DTD SVG 1.1//EN" "http://www.w3.org/Graphics/SVG/1.1/DTD/svg11.dtd"><svg t="1771748625131" class="icon" viewBox="0 0 1024 1024" version="1.1" xmlns="http://www.w3.org/2000/svg" p-id="6844" xmlns:xlink="http://www.w3.org/1999/xlink" width="200" height="200"><path d="M909.46816 511.5072c0 219.2576-178.26688 398.62272-399.19104 397.952a397.50144 397.50144 0 0 1-395.74912-397.952c0-219.22816 178.29632-397.63712 399.19104-396.9984 219.97696 0.608 395.74912 178.40896 395.74912 396.9984zM512.18688 266.50624c-24.78592 0-44.19072 19.51104-44.19072 44.61696a44.01664 44.01664 0 0 0 88.03328 0c0-25.10592-19.75168-44.61696-43.84256-44.61696z m-44.19072 168.064v278.2784a44.16 44.16 0 1 0 88.32 0V434.5664a44.16 44.16 0 1 0-88.32 0z m45.11616-232.12928C341.376 201.82912 202.88 341.2736 202.88 511.5072A308.96896 308.96896 0 0 0 510.592 820.608c125.952 0.60928 238.16064-74.12864 286.08-188.46848a308.33536 308.33536 0 0 0 24.72704-120.63104 313.11616 313.11616 0 0 0-24.72704-120.6016c-47.31392-113.06368-158.8608-187.8016-283.56608-188.46848z" fill="#3B3F51" p-id="6845"></path></svg>