<?xml version="1.0" standalone="no"?><!DOCTYPE svg PUBLIC "-//W3C//DTD SVG 1.1//EN" "http://www.w3.org/Graphics/SVG/1.1/DTD/svg11.dtd"><svg t="1782399485383" class="icon" viewBox="0 0 1024 1024" version="1.1" xmlns="http://www.w3.org/2000/svg" p-id="19604" xmlns:xlink="http://www.w3.org/1999/xlink" width="200" height="200"><path d="M863.325091 189.300364a490.589091 490.589091 0 0 0-352.814546-142.429091C255.208727 46.312727 47.709091 252.834909 47.010909 508.183273c-0.651636 255.348364 205.870545 462.894545 461.265455 463.546182a119.296 119.296 0 0 0 116.922181-87.412364 116.503273 116.503273 0 0 0-26.344727-105.425455 23.133091 23.133091 0 0 1 17.128727-38.353454h76.288a284.392727 284.392727 0 0 0 284.858182-262.190546 392.098909 392.098909 0 0 0-113.803636-289.000727zM276.107636 635.997091a69.352727 69.352727 0 1 1 18.525091-96.209455 68.887273 68.887273 0 0 1-18.525091 96.209455z m67.490909-253.858909A69.352727 69.352727 0 1 1 221.556364 316.229818 69.352727 69.352727 0 0 1 343.645091 382.138182z m124.881455-104.029091a69.352727 69.352727 0 1 1 0-138.705455 69.352727 69.352727 0 0 1 0 138.705455z m265.867636 36.957091a69.352727 69.352727 0 1 1-71.214545-119.016727 69.352727 69.352727 0 0 1 71.214545 119.016727z" fill="#999999" p-id="19605"></path></svg>