<?xml version="1.0" standalone="no"?><!DOCTYPE svg PUBLIC "-//W3C//DTD SVG 1.1//EN" "http://www.w3.org/Graphics/SVG/1.1/DTD/svg11.dtd"><svg t="1782799964572" class="icon" viewBox="0 0 1024 1024" version="1.1" xmlns="http://www.w3.org/2000/svg" p-id="14217" xmlns:xlink="http://www.w3.org/1999/xlink" width="200" height="200"><path d="M955.968 345.6c-20.8-50.368-63.04-104.704-96.128-121.856 26.944 53.12 42.56 106.368 48.512 146.112v0.96c45.248 123.136 20.608 248.32-14.912 324.864-54.976 118.4-187.968 239.68-396.16 233.792-224.832-6.4-423.04-174.08-460.032-393.472-6.72-34.624 0-52.224 3.392-80.32-4.096 21.696-5.696 27.904-7.744 66.432v2.432c0 265.856 214.656 481.344 479.488 481.344 237.12 0 434.048-172.8 472.576-399.872 0.832-6.144 1.472-12.352 2.176-18.56 9.472-82.56-1.088-169.344-31.168-241.92z" fill="#E50080" p-id="14218"></path><path d="M723.84 405.76l3.008 2.24a261.376 261.376 0 0 0-44.608-58.304c-149.44-149.632-39.168-324.48-20.608-333.312l0.192-0.256C541.12 86.912 500.16 217.92 496.384 283.52c5.568-0.384 11.2-0.896 16.896-0.896a242.56 242.56 0 0 1 210.56 123.2z" fill="#FFB724" p-id="14219"></path><path d="M513.536 435.648c-0.768 12.032-43.008 53.312-57.792 53.312q-136.704 0-158.848 82.816c6.016 69.76 54.528 127.104 113.216 157.504 2.688 1.408 5.376 2.624 8 3.84 4.672 2.048 9.408 4.032 14.08 5.824 20.16 7.104 41.28 11.136 62.592 12.032 239.552 11.264 286.016-286.848 113.088-373.44 44.288-7.68 90.24 10.176 115.84 28.16a242.56 242.56 0 0 0-210.56-123.136c-5.696 0-11.264 0.512-16.896 0.896a240.384 240.384 0 0 0-132.224 51.072c7.296 6.272 15.616 14.528 33.024 31.744 32.64 32.256 116.352 65.472 116.48 69.376z" fill="#9755FC" p-id="14220"></path><path d="M341.696 318.528l9.984 6.592a223.36 223.36 0 0 1-1.344-117.632c-49.408 22.528-87.808 58.112-115.712 89.6 2.24-0.128 72-1.344 107.072 21.44z" fill="#FF9800" p-id="14221"></path><path d="M36.48 539.648c37.056 219.392 235.712 387.072 461.248 393.472 208.704 5.888 342.016-115.392 397.184-233.792 35.584-76.544 60.288-201.728 14.912-324.864v-0.896l0.128 0.768c17.024 111.488-39.616 219.52-128.128 292.544a11.264 11.264 0 0 0-0.256 0.64c-172.48 140.672-337.536 84.864-371.008 62.08a281.28 281.28 0 0 1-6.976-3.456c-100.544-48.064-142.08-139.904-133.184-218.624q-84.928 0-113.92-71.68 76.288-54.464 176.768-7.104c93.056 43.84 180.48 7.04 180.48 7.04-0.192-3.84-83.84-37.184-116.48-69.376-17.408-17.216-25.664-25.472-33.024-31.744a142.272 142.272 0 0 0-12.416-9.408c-2.88-1.984-6.016-3.968-10.048-6.592-35.008-22.848-104.768-21.568-107.072-21.504h-0.192c-19.072-24.192-17.728-103.872-16.64-120.512-0.256-1.088-14.208 7.232-16 8.512a349.632 349.632 0 0 0-46.976 40.32c-16.448 16.64-31.488 34.688-44.928 53.888A406.592 406.592 0 0 0 45.504 425.152C45.12 426.112 27.968 500.864 36.416 539.648z" fill="#EF5350" p-id="14222"></path><path d="M682.24 349.696c17.536 17.28 32.576 36.864 44.608 58.304 2.56 1.92 4.928 3.904 7.232 6.016 108.928 100.48 51.968 242.688 47.616 252.928 88.512-73.088 145.152-181.12 128.064-292.544-54.336-135.808-146.496-190.528-221.76-309.632a514.176 514.176 0 0 1-11.328-18.432 139.392 139.392 0 0 1-5.248-9.984 87.68 87.68 0 0 1-7.232-19.008 1.28 1.28 0 0 0-1.024-1.28 1.728 1.728 0 0 0-0.96 0 0.96 0.96 0 0 0-0.192 0.128l-0.384 0.192c-18.56 8.896-128.832 183.68 20.608 333.312z" fill="#FFD83C" p-id="14223"></path><path d="M734.08 413.952a92.8 92.8 0 0 0-7.232-6.016l-3.008-2.24c-25.664-18.048-71.68-35.84-115.904-28.16 172.864 86.528 126.464 384.64-113.088 373.376a213.504 213.504 0 0 1-62.528-12.032 262.272 262.272 0 0 1-22.144-9.6l0.32 0.192c33.408 22.784 198.464 78.592 371.008-62.08l0.256-0.64c4.288-10.048 61.248-152.32-47.744-252.8z" fill="#FF9800" p-id="14224"></path><path d="M296.896 571.776Q319.04 488.96 455.68 488.96c14.784 0 57.024-41.28 57.792-53.312 0.768-11.968-87.36 36.8-180.48-7.04q-100.48-47.36-176.64 7.04 28.928 71.744 113.792 71.744c-8.896 78.72 32.64 170.496 133.248 218.624 2.24 1.024 4.352 2.24 6.656 3.264-58.688-30.336-107.136-87.808-113.28-157.504z" fill="#FFD83C" p-id="14225"></path></svg>